<svg width="12" height="12" viewBox="0 0 12 12" fill="none" xmlns="http://www.w3.org/2000/svg">
<g id="Mask Group 18940">
<g id="info-circle">
<path id="Path 63645" d="M6.00064 12C4.8138 12.0015 3.65324 11.6506 2.66608 10.9917C1.67892 10.3329 0.909607 9.39577 0.455673 8.29917C0.00173923 7.20257 -0.116376 5.99589 0.116302 4.83208C0.348979 3.66828 0.92197 2.59977 1.76264 1.762C2.31918 1.20546 2.97989 0.763983 3.70705 0.462785C4.43421 0.161586 5.21357 0.00656129 6.00064 0.00656128C6.78771 0.00656127 7.56707 0.161586 8.29423 0.462784C9.02139 0.763983 9.6821 1.20546 10.2386 1.762C10.7952 2.31854 11.2367 2.97925 11.5379 3.70641C11.8391 4.43357 11.9941 5.21293 11.9941 6C11.9941 6.78707 11.8391 7.56643 11.5379 8.29359C11.2367 9.02075 10.7952 9.68146 10.2386 10.238C9.68384 10.7973 9.0236 11.2411 8.29615 11.5435C7.56869 11.846 6.78846 12.0011 6.00064 12ZM6.00064 0.836998C4.97949 0.836998 3.98128 1.1398 3.13223 1.70712C2.28318 2.27444 1.62142 3.08079 1.23065 4.0242C0.839873 4.96762 0.737628 6.00573 0.936844 7.00725C1.13606 8.00877 1.62779 8.92873 2.34985 9.65079C3.0719 10.3728 3.99186 10.8646 4.99339 11.0638C5.99491 11.263 7.03302 11.1608 7.97643 10.77C8.91985 10.3792 9.7262 9.71746 10.2935 8.86841C10.8608 8.01936 11.1636 7.02114 11.1636 6C11.1621 4.63117 10.6176 3.31887 9.64968 2.35096C8.68177 1.38305 7.36946 0.838586 6.00064 0.836998Z" fill="#707071"/>
<path id="Path 63646" d="M6.00047 12C5.13647 12 4.34847 11.332 3.78247 10.119C3.22614 8.81833 2.9521 7.41441 2.97847 6C2.95084 4.58587 3.22351 3.18197 3.77847 1.881C4.34847 0.67 5.13547 0 6.00047 0C6.86547 0 7.64847 0.67 8.21747 1.881C8.77243 3.18197 9.0451 4.58587 9.01747 6C9.0451 7.41413 8.77243 8.81803 8.21747 10.119C7.64847 11.332 6.86447 12 6.00047 12ZM6.00047 0.837C4.96747 0.837 3.81647 2.957 3.81647 6C3.81647 9.043 4.96747 11.163 6.00047 11.163C7.03347 11.163 8.18447 9.043 8.18447 6C8.18447 2.957 7.03347 0.837 6.00047 0.837Z" fill="#707071"/>
<path id="Path 63647" d="M6.00098 8.281C4.62175 8.30265 3.24749 8.11071 1.92698 7.712C0.334976 7.181 0.000976562 6.489 0.000976562 6C0.000976562 5.511 0.334976 4.819 1.92698 4.289C3.24744 3.88996 4.6217 3.69768 6.00098 3.719C7.37891 3.6981 8.7518 3.89037 10.071 4.289C11.671 4.819 12.001 5.512 12.001 6C12.001 6.488 11.671 7.181 10.071 7.712C8.75174 8.1103 7.37886 8.30223 6.00098 8.281ZM6.00098 4.557C4.7118 4.53524 3.427 4.71266 2.19198 5.083C1.25698 5.395 0.838977 5.769 0.838977 6.001C0.838977 6.233 1.25698 6.607 2.19198 6.919C3.427 7.28935 4.7118 7.46677 6.00098 7.445C7.29015 7.46677 8.57495 7.28935 9.80998 6.919C10.745 6.607 11.163 6.233 11.163 6.001C11.163 5.769 10.745 5.395 9.80998 5.083C8.57501 4.71232 7.2902 4.53456 6.00098 4.556V4.557Z" fill="#707071"/>
</g>
</g>
</svg>
