<svg width="13" height="14" viewBox="0 0 13 14" fill="none" xmlns="http://www.w3.org/2000/svg">
<g id="Mask Group 18942">
<g id="location">
<path id="Path 63647" d="M6.10284 8.41075C5.60518 8.41016 5.11888 8.26199 4.70543 7.98499C4.29199 7.70799 3.96997 7.3146 3.78012 6.85458C3.59027 6.39456 3.54111 5.88856 3.63885 5.4006C3.73659 4.91263 3.97685 4.46461 4.32924 4.1132C4.68163 3.76179 5.13032 3.52278 5.61855 3.42639C6.10679 3.33001 6.61265 3.38058 7.07214 3.57171C7.53163 3.76284 7.92412 4.08595 8.19997 4.50016C8.47582 4.91438 8.62263 5.40109 8.62184 5.89875C8.61946 6.56546 8.35308 7.20407 7.88099 7.67485C7.4089 8.14563 6.76955 8.41023 6.10284 8.41075ZM6.10284 4.35575C5.79767 4.35575 5.49934 4.44625 5.2456 4.6158C4.99185 4.78534 4.79408 5.02633 4.6773 5.30827C4.56051 5.59022 4.52995 5.90047 4.58949 6.19978C4.64903 6.49909 4.79598 6.77403 5.01178 6.98982C5.22757 7.20561 5.5025 7.35257 5.80182 7.4121C6.10113 7.47164 6.41138 7.44108 6.69332 7.3243C6.97527 7.20751 7.21625 7.00974 7.3858 6.756C7.55535 6.50225 7.64584 6.20393 7.64584 5.89875C7.64478 5.48994 7.48185 5.09819 7.19268 4.80921C6.90351 4.52023 6.51165 4.35755 6.10284 4.35675V4.35575Z" fill="#707071"/>
<path id="Path 63648" d="M6.1027 14.0018C5.10002 13.9998 4.13691 13.6103 3.4147 12.9148C1.4947 11.0668 -0.627296 8.11476 0.173704 4.61476C0.477921 3.2798 1.2345 2.09114 2.31513 1.25037C3.39576 0.409596 4.73392 -0.0315451 6.1027 0.00175633H6.1097C7.47862 -0.0314961 8.8169 0.409787 9.89755 1.25076C10.9782 2.09173 11.7347 3.28061 12.0387 4.61576C12.8327 8.12376 10.7107 11.0658 8.7907 12.9158C8.06834 13.6109 7.10525 14 6.1027 14.0018ZM6.1027 0.977756C4.95508 0.93716 3.82946 1.29969 2.92124 2.00241C2.01301 2.70513 1.37951 3.70369 1.1307 4.82476C0.430704 7.89076 2.3547 10.5328 4.0987 12.2058C4.63645 12.7284 5.3568 13.0208 6.1067 13.0208C6.85661 13.0208 7.57696 12.7284 8.1147 12.2058C9.8487 10.5328 11.7787 7.88976 11.0887 4.82476C10.8363 3.70292 10.1999 2.70452 9.28946 2.0021C8.37906 1.29967 7.25188 0.937351 6.1027 0.977756Z" fill="#707071"/>
</g>
</g>
</svg>
