<svg width="13" height="12" viewBox="0 0 13 12" fill="none" xmlns="http://www.w3.org/2000/svg">
<g id="Mask Group 18941">
<g id="sms">
<path id="Path 63645" d="M8.80649 11.162H3.22549C2.79301 11.2068 2.35597 11.1546 1.9462 11.0092C1.53643 10.8638 1.16424 10.6289 0.856742 10.3215C0.549243 10.0141 0.314171 9.64197 0.168642 9.23224C0.0231144 8.82252 -0.0292059 8.38549 0.0154914 7.953V4.046C-0.0292059 3.6135 0.0231144 3.17648 0.168642 2.76675C0.314171 2.35703 0.549243 1.98491 0.856742 1.67751C1.16424 1.37011 1.53643 1.13515 1.9462 0.989749C2.35597 0.844348 2.79301 0.792164 3.22549 0.836996H8.80649C9.2389 0.792324 9.67582 0.844628 10.0855 0.9901C10.4951 1.13557 10.8672 1.37055 11.1746 1.67794C11.4819 1.98532 11.7169 2.35738 11.8624 2.76702C12.0079 3.17666 12.0602 3.61359 12.0155 4.046V7.953C12.0602 8.3854 12.0079 8.82233 11.8624 9.23197C11.7169 9.64162 11.4819 10.0137 11.1746 10.3211C10.8672 10.6284 10.4951 10.8634 10.0855 11.0089C9.67582 11.1544 9.2389 11.2067 8.80649 11.162ZM3.22549 1.674C2.90274 1.62527 2.57306 1.65301 2.26299 1.75496C1.95291 1.85692 1.67111 2.03025 1.44026 2.26101C1.2094 2.49176 1.03595 2.7735 0.933865 3.08353C0.831777 3.39356 0.803905 3.72323 0.852491 4.046V7.953C0.803905 8.27577 0.831777 8.60543 0.933865 8.91547C1.03595 9.2255 1.2094 9.50723 1.44026 9.73798C1.67111 9.96874 1.95291 10.1421 2.26299 10.244C2.57306 10.346 2.90274 10.3737 3.22549 10.325H8.80649C9.12916 10.3735 9.45873 10.3457 9.76867 10.2436C10.0786 10.1416 10.3603 9.96825 10.591 9.73752C10.8217 9.50679 10.9951 9.22512 11.0971 8.91518C11.1992 8.60523 11.227 8.27567 11.1785 7.953V4.046C11.227 3.72332 11.1992 3.39376 11.0971 3.08382C10.9951 2.77387 10.8217 2.49221 10.591 2.26147C10.3603 2.03074 10.0786 1.85738 9.76867 1.75535C9.45873 1.65331 9.12916 1.62545 8.80649 1.674H3.22549Z" fill="#707071"/>
<path id="Path 63646" d="M6.01525 6.48499C5.54239 6.4911 5.08161 6.33552 4.70925 6.04399L2.96225 4.64399C2.87566 4.57516 2.81995 4.47476 2.80739 4.36486C2.79482 4.25497 2.82643 4.14458 2.89525 4.05799C2.96408 3.97139 3.06448 3.91569 3.17438 3.90312C3.28427 3.89056 3.39466 3.92216 3.48125 3.99099L5.22825 5.39099C5.45602 5.55682 5.73051 5.64615 6.01225 5.64615C6.294 5.64615 6.56848 5.55682 6.79625 5.39099L8.54325 3.99099C8.58613 3.95691 8.6353 3.93161 8.68795 3.91653C8.74061 3.90146 8.79571 3.8969 8.85013 3.90312C8.90454 3.90934 8.9572 3.92622 9.00509 3.95279C9.05299 3.97937 9.09517 4.01511 9.12925 4.05799C9.16333 4.10086 9.18863 4.15003 9.20371 4.20269C9.21878 4.25534 9.22334 4.31045 9.21712 4.36486C9.2109 4.41928 9.19402 4.47193 9.16745 4.51983C9.14087 4.56772 9.10513 4.60991 9.06225 4.64399L7.31525 6.04399C6.94556 6.33616 6.48642 6.49192 6.01525 6.48499Z" fill="#707071"/>
</g>
</g>
</svg>
