<svg width="22" height="10" viewBox="0 0 22 10" fill="none" xmlns="http://www.w3.org/2000/svg">
<path d="M5.85 8C6.36667 8 6.82917 7.85 7.2375 7.55C7.64583 7.25 7.93333 6.85833 8.1 6.375L8.475 5.225C8.74167 4.425 8.675 3.6875 8.275 3.0125C7.875 2.3375 7.3 2 6.55 2H3.025L3.5 5.925C3.58333 6.50833 3.84583 7 4.2875 7.4C4.72917 7.8 5.25 8 5.85 8ZM16.15 8C16.75 8 17.2708 7.8 17.7125 7.4C18.1542 7 18.4167 6.50833 18.5 5.925L18.975 2H15.475C14.725 2 14.15 2.34167 13.75 3.025C13.35 3.70833 13.2833 4.45 13.55 5.25L13.9 6.375C14.0667 6.85833 14.3542 7.25 14.7625 7.55C15.1708 7.85 15.6333 8 16.15 8ZM5.85 10C4.75 10 3.7875 9.6375 2.9625 8.9125C2.1375 8.1875 1.65833 7.275 1.525 6.175L1 2H0V0H6.55C7.28333 0 7.95417 0.179167 8.5625 0.5375C9.17083 0.895833 9.65 1.38333 10 2H12.025C12.375 1.38333 12.8542 0.895833 13.4625 0.5375C14.0708 0.179167 14.7417 0 15.475 0H22V2H21L20.475 6.175C20.3417 7.275 19.8625 8.1875 19.0375 8.9125C18.2125 9.6375 17.25 10 16.15 10C15.2 10 14.3458 9.72917 13.5875 9.1875C12.8292 8.64583 12.3 7.925 12 7.025L11.625 5.9C11.5917 5.78333 11.5583 5.6625 11.525 5.5375C11.4917 5.4125 11.4583 5.23333 11.425 5H10.575C10.5417 5.2 10.5083 5.3625 10.475 5.4875C10.4417 5.6125 10.4083 5.73333 10.375 5.85L10 7C9.7 7.9 9.17083 8.625 8.4125 9.175C7.65417 9.725 6.8 10 5.85 10Z" fill="black"/>
</svg>
