<svg width="48" height="48" viewBox="0 0 48 48" fill="none" xmlns="http://www.w3.org/2000/svg">
<g clip-path="url(#clip0_15474_117995)">
<path d="M12 6C12 5.17157 12.6716 4.5 13.5 4.5H34.5L45 15V42C45 42.8284 44.3284 43.5 43.5 43.5H13.5C12.6716 43.5 12 42.8284 12 42V6Z" fill="#BA2417"/>
<rect x="12" y="33" width="16.5" height="10.5" fill="#BA2417"/>
<rect x="28.5" y="33" width="16.5" height="10.5" fill="#BA2417"/>
</g>
<path d="M45 15H36C35.1716 15 34.5 14.3284 34.5 13.5V4.5L39.75 9.75L45 15Z" fill="white" fill-opacity="0.6"/>
<rect x="3" y="19.5" width="27" height="15" rx="1.5" fill="#EC5649"/>
<path d="M27.7971 24.9362H23.7771V26.8082H27.7131V28.2122H23.7771V31.5002H22.2051V23.5322H27.7971V24.9362Z" fill="white"/>
<path d="M13.6855 23.5322H16.4455C19.2175 23.5322 20.7895 25.3442 20.7895 27.5162C20.7895 29.6882 19.2175 31.5002 16.4455 31.5002H13.6855V23.5322ZM15.2575 30.0962H16.3975C18.1255 30.0962 19.2175 29.0162 19.2175 27.5162C19.2175 26.0162 18.1255 24.9362 16.3975 24.9362H15.2575V30.0962Z" fill="white"/>
<path d="M12.3308 25.9802C12.3308 27.3122 11.4668 28.4402 9.57077 28.4402H7.20677V31.5002H5.63477V23.5322H9.57077C11.4668 23.5322 12.3308 24.6722 12.3308 25.9802ZM7.20677 24.9362V27.0362H9.46277C10.2788 27.0362 10.7588 26.6162 10.7588 25.9802C10.7588 25.3442 10.2788 24.9362 9.46277 24.9362H7.20677Z" fill="white"/>
<defs>
<clipPath id="clip0_15474_117995">
<rect x="12" y="4.5" width="33" height="39" rx="1.5" fill="white"/>
</clipPath>
</defs>
</svg>
