<svg width="21" height="20" viewBox="0 0 21 20" fill="none" xmlns="http://www.w3.org/2000/svg">
<g clip-path="url(#clip0_7384_71708)">
<path d="M5.49992 3.33398H13.8333L17.1666 6.66732V15.0007C17.1666 15.4427 16.991 15.8666 16.6784 16.1792C16.3659 16.4917 15.9419 16.6673 15.4999 16.6673H5.49992C5.05789 16.6673 4.63397 16.4917 4.32141 16.1792C4.00885 15.8666 3.83325 15.4427 3.83325 15.0007V5.00065C3.83325 4.55862 4.00885 4.1347 4.32141 3.82214C4.63397 3.50958 5.05789 3.33398 5.49992 3.33398Z" stroke="black" stroke-width="1.25" stroke-linecap="round" stroke-linejoin="round"/>
<path d="M8.83325 11.6667C8.83325 12.1087 9.00885 12.5326 9.32141 12.8452C9.63397 13.1577 10.0579 13.3333 10.4999 13.3333C10.9419 13.3333 11.3659 13.1577 11.6784 12.8452C11.991 12.5326 12.1666 12.1087 12.1666 11.6667C12.1666 11.2246 11.991 10.8007 11.6784 10.4882C11.3659 10.1756 10.9419 10 10.4999 10C10.0579 10 9.63397 10.1756 9.32141 10.4882C9.00885 10.8007 8.83325 11.2246 8.83325 11.6667Z" stroke="black" stroke-width="1.25" stroke-linecap="round" stroke-linejoin="round"/>
<path d="M12.1667 3.33398V6.66732H7.16675V3.33398" stroke="black" stroke-width="1.25" stroke-linecap="round" stroke-linejoin="round"/>
</g>
<defs>
<clipPath id="clip0_7384_71708">
<rect width="20" height="20" fill="white" transform="translate(0.5)"/>
</clipPath>
</defs>
</svg>
